<svg xmlns="http://www.w3.org/2000/svg" xmlns:xlink="http://www.w3.org/1999/xlink" width="1349" height="765" viewBox="0 0 1349 765">
  <defs>
    <clipPath id="a">
      <polygon points="779.405 393 923.678 434.092 784.273 486.907 640 445.815 779.405 393" fill="none"/>
    </clipPath>
    <clipPath id="b">
      <polygon points="779.405 393 923.679 434.092 784.274 486.907 640 445.815 779.405 393" fill="none"/>
    </clipPath>
  </defs>
  <title>main</title>
  <g>
    <polygon points="387 765 0 630 0 540 652 765 387 765" fill="#757575"/>
    <polyline points="1349 0 1349 765 652 765 0 540" fill="#e0e0e0"/>
  </g>
  <g>
    <path d="M975.66667,339l-495,198c-13,5-12,16,5,22,0,0,96.33333,64,142.33333,71,27.2005,4.13921,92.73578,1.17789,118.66667-9,117.06753-45.94907,467-187,467-187,27-11,20-26,5-31l-181-63C1010.66667,331,995.66667,331,975.66667,339Z" fill="#bdbdbd"/>
    <path d="M628.00092,629.73564c12.81593-.21306,25.49857-3.28672,39.66575-8.73564l467-187C1156,425,1153,430,1153,396L958.66667,340c-27-9-42-9-62-1L627.99991,438.74987" fill="#ef6c00"/>
    <path d="M627.99984,611.73565c12.81629-.21291,25.49925-3.28659,39.66682-8.73565l467-187C1156,407,1153,401,1153,384L958.66667,322c-27-9-42-9-62-1L627.99991,424.48382" fill="#f57c00"/>
    <path d="M627.99991,438.74987,393,526c1,27-3.33333,27,13.66667,33l188,65a95.44831,95.44831,0,0,0,33.33425,5.73564" fill="#ff8f00"/>
    <path d="M627.99991,424.48382,393,515c0,23-2,20,13.66667,26l188,65a95.44885,95.44885,0,0,0,33.33318,5.73565" fill="#ffa000"/>
    <path d="M896.66667,305l-495,198c-12.66667,6-12,16,5,22l188,65c26,9,47,7,73-3l467-187c27-11,20-26,5-31l-181-63C931.66667,297,916.66667,297,896.66667,305Z" fill="#424242"/>
    <polygon points="879 325 441 499.993 655.453 574 1093 399 879 325" fill="#b2dfdb"/>
    <ellipse cx="1087.95238" cy="374.07937" rx="9.04762" ry="3.92063" fill="#616161"/>
    <path d="M1033.34137,359.69671l-60.53671-20.768c-2.8613-.98161-2.18228-2.9609,1.50894-4.39843h0c3.69122-1.43753,9.05238-1.81055,11.91368-.82894l60.53671,20.768c2.8613.98161,2.18228,2.9609-1.50894,4.39843h0C1041.56383,360.3053,1036.20268,360.67832,1033.34137,359.69671Z" fill="#616161"/>
    <g clip-path="url(#a)">
      <polygon points="822.723 405.34 744.552 406.205 709.702 419.408 674.851 432.612 683.321 458.154 718.171 444.951 761.492 457.289 796.343 444.085 753.023 431.747 787.872 418.544 831.192 430.882 866.044 417.678 822.723 405.34" fill="#009688"/>
      <g clip-path="url(#b)">
        <path d="M888.82431,447.29687c9.23975-3.50058,13.54336-8.1626,11.95734-12.95064-1.58771-4.78851-8.93777-9.32123-20.42384-12.5927l-34.8539,13.20479-.00355.00134-34.84682,13.2021L775.79609,461.3679c11.48607,3.27147,26.18567,5.01974,40.842,4.85707,14.6558-.16359,28.095-2.22362,37.33589-5.72465Z" fill="#ff8f00"/>
      </g>
    </g>
  </g>
</svg>
